<svg width="14" height="14" viewBox="0 0 14 14" fill="none" xmlns="http://www.w3.org/2000/svg">
<path fill-rule="evenodd" clip-rule="evenodd" d="M9.35698 0.0137068C9.36718 -0.000832258 9.38719 -0.00436565 9.40174 0.00581476L10.3958 0.701865C10.4103 0.712045 10.4139 0.732082 10.4037 0.746621L9.02013 2.72254C9.69276 2.93743 10.151 3.16922 10.151 3.16922C10.151 3.16922 9.0309 5.09592 7.13109 5.09592C5.23127 5.09592 3.88128 3.3002 3.88128 3.3002C3.88128 3.3002 4.35996 2.99471 5.06953 2.73271L3.55195 0.924153C3.54055 0.910555 3.54233 0.890285 3.55592 0.878877L4.48552 0.0988381C4.49914 0.0874294 4.5194 0.0892027 4.5308 0.102799L6.4523 2.39275C6.61683 2.37414 6.78445 2.36374 6.9536 2.36374C7.19671 2.36374 7.43952 2.38222 7.67657 2.41359L9.35698 0.0137068ZM9.73284 5.18716C10.2398 4.82508 11.007 3.88002 11.007 3.88002C11.007 3.88002 12.9665 5.43287 12.9665 8.7255C12.9665 12.0181 9.57876 13.9998 9.57876 13.9998C9.57876 13.9998 7.96015 12.3651 7.56279 10.293C7.16546 8.22087 8.15057 5.92 8.15057 5.92C8.15057 5.92 9.22584 5.54925 9.73284 5.18716ZM4.27276 5.18716C3.76578 4.82508 2.99863 3.88002 2.99863 3.88002C2.99863 3.88002 1.03906 5.43287 1.03906 8.7255C1.03906 12.0181 4.42684 13.9998 4.42684 13.9998C4.42684 13.9998 6.04546 12.3651 6.44282 10.293C6.84015 8.22087 5.85504 5.92 5.85504 5.92C5.85504 5.92 4.77977 5.54925 4.27276 5.18716Z" fill="white"/>
</svg>
