<svg width="14" height="15" viewBox="0 0 14 15" fill="none" xmlns="http://www.w3.org/2000/svg">
<g clip-path="url(#clip0_132_4517)">
<path fill-rule="evenodd" clip-rule="evenodd" d="M9.35698 0.513707C9.36718 0.499168 9.38719 0.495634 9.40174 0.505815L10.3958 1.20186C10.4103 1.21204 10.4139 1.23208 10.4037 1.24662L9.02013 3.22254C9.69276 3.43743 10.151 3.66922 10.151 3.66922C10.151 3.66922 9.0309 5.59592 7.13109 5.59592C5.23127 5.59592 3.88128 3.8002 3.88128 3.8002C3.88128 3.8002 4.35996 3.49471 5.06953 3.23271L3.55195 1.42415C3.54055 1.41056 3.54233 1.39029 3.55592 1.37888L4.48552 0.598838C4.49914 0.587429 4.5194 0.589203 4.5308 0.602799L6.4523 2.89275C6.61683 2.87414 6.78445 2.86374 6.9536 2.86374C7.19671 2.86374 7.43952 2.88222 7.67657 2.91359L9.35698 0.513707ZM9.73284 5.68716C10.2398 5.32508 11.007 4.38002 11.007 4.38002C11.007 4.38002 12.9665 5.93287 12.9665 9.2255C12.9665 12.5181 9.57876 14.4998 9.57876 14.4998C9.57876 14.4998 7.96015 12.8651 7.56279 10.793C7.16546 8.72087 8.15057 6.42 8.15057 6.42C8.15057 6.42 9.22584 6.04925 9.73284 5.68716ZM4.27276 5.68716C3.76578 5.32508 2.99863 4.38002 2.99863 4.38002C2.99863 4.38002 1.03906 5.93287 1.03906 9.2255C1.03906 12.5181 4.42684 14.4998 4.42684 14.4998C4.42684 14.4998 6.04546 12.8651 6.44282 10.793C6.84015 8.72087 5.85504 6.42 5.85504 6.42C5.85504 6.42 4.77977 6.04925 4.27276 5.68716Z" fill="white"/>
</g>
<defs>
<clipPath id="clip0_132_4517">
<rect width="14" height="14" fill="white" transform="translate(0 0.5)"/>
</clipPath>
</defs>
</svg>
