<svg width="14" height="15" viewBox="0 0 14 15" fill="none" xmlns="http://www.w3.org/2000/svg">
<g clip-path="url(#clip0_132_4604)">
<path fill-rule="evenodd" clip-rule="evenodd" d="M6.27208 12.8826C6.53805 12.9233 6.81045 12.9444 7.08783 12.9444C10.041 12.9444 12.435 10.5504 12.435 7.59723C12.435 4.64403 10.041 2.25 7.08783 2.25C6.8897 2.25 6.69405 2.26078 6.50152 2.28178C7.96646 3.39163 8.93503 5.3142 8.93503 7.5C8.93503 9.79797 7.8645 11.805 6.27208 12.8826ZM6.99059 14.5C10.8566 14.5 13.9906 11.366 13.9906 7.5C13.9906 3.634 10.8566 0.5 6.99059 0.5C3.1246 0.5 -0.00939941 3.634 -0.00939941 7.5C-0.00939941 11.366 3.1246 14.5 6.99059 14.5Z" fill="white"/>
</g>
<defs>
<clipPath id="clip0_132_4604">
<rect width="14" height="14" fill="white" transform="translate(0 0.5)"/>
</clipPath>
</defs>
</svg>
