<svg width="14" height="14" viewBox="0 0 14 14" fill="none" xmlns="http://www.w3.org/2000/svg">
<g clip-path="url(#clip0_135_7927)">
<path fill-rule="evenodd" clip-rule="evenodd" d="M6.2722 12.3826C6.53818 12.4233 6.81058 12.4444 7.08795 12.4444C10.0411 12.4444 12.4352 10.0504 12.4352 7.09723C12.4352 4.14403 10.0411 1.75 7.08795 1.75C6.88982 1.75 6.69417 1.76078 6.50165 1.78178C7.96659 2.89163 8.93516 4.8142 8.93516 7C8.93516 9.29797 7.86462 11.305 6.2722 12.3826ZM6.99072 14C10.8567 14 13.9907 10.866 13.9907 7C13.9907 3.134 10.8567 0 6.99072 0C3.12472 0 -0.00927734 3.134 -0.00927734 7C-0.00927734 10.866 3.12472 14 6.99072 14Z" fill="white"/>
</g>
<defs>
<clipPath id="clip0_135_7927">
<rect width="14" height="14" fill="white"/>
</clipPath>
</defs>
</svg>
