<svg width="14" height="14" viewBox="0 0 14 14" fill="none" xmlns="http://www.w3.org/2000/svg">
<g clip-path="url(#clip0_135_7936)">
<path fill-rule="evenodd" clip-rule="evenodd" d="M7.67545 6.9694C7.77033 6.91154 7.85083 6.7903 7.91574 6.65555C8.7701 7.00473 9.37048 7.82986 9.37048 8.79211C9.37048 10.0704 8.31091 11.1067 7.00388 11.1067C6.46734 11.1067 5.9725 10.9321 5.57556 10.6378C5.44534 10.5761 5.33821 10.5169 5.25055 10.4684C5.11457 10.3933 5.0254 10.3439 4.96956 10.3517C4.80635 10.3742 4.85373 10.5243 4.8968 10.6608C4.92603 10.7534 4.95329 10.8397 4.9111 10.8753C4.86697 10.9126 4.72402 10.7763 4.55697 10.6171C4.32958 10.4003 4.05757 10.1409 3.9293 10.2188C3.82788 10.2804 3.92634 10.4475 4.04688 10.6521L4.05582 10.6672C4.10673 10.7537 4.16574 10.8417 4.21958 10.9221C4.32904 11.0853 4.41719 11.2169 4.37309 11.2392C4.31977 11.2661 3.94827 11.0153 3.63522 10.6672C3.51438 10.5329 3.39735 10.3873 3.28858 10.2519V10.2519C3.0505 9.95567 2.85214 9.70889 2.7408 9.73812C2.60686 9.77328 2.70818 10.0496 2.85707 10.3154C2.92668 10.4398 3.00858 10.5664 3.07948 10.676V10.676C3.18976 10.8465 3.27346 10.9758 3.24311 10.9918C3.20214 11.0132 2.84173 10.6617 2.59693 10.2188C2.45153 9.95575 2.32944 9.66503 2.2306 9.42968C2.12341 9.17443 2.04356 8.98431 1.99098 8.96517C1.80831 8.89869 1.80831 9.27114 1.88158 9.80869C1.89113 9.87883 1.90536 9.95239 1.92289 10.0273C2.63339 12.3262 4.816 14 7.39832 14C10.557 14 13.1176 11.4956 13.1176 8.40634C13.1176 5.46602 10.798 3.05558 7.85094 2.82991C7.85466 2.6914 7.92695 2.41672 7.92695 2.41672C7.92695 2.41672 8.44722 1.15793 8.47473 0.888943C8.47654 0.87109 8.4787 0.851689 8.48102 0.831028C8.51342 0.540392 8.57371 0 8.10882 0C7.86054 0 7.74509 0.184697 7.61305 0.395935V0.395938C7.56235 0.477031 7.5092 0.562037 7.44516 0.642004C6.98392 1.21799 6.20834 1.93727 5.76857 2.32048C4.83905 3.13042 3.92708 3.79608 3.39519 4.1843L3.39516 4.18433C3.15325 4.36089 2.98998 4.48008 2.93945 4.52933C2.55866 4.90055 1.19333 7.36329 1.19333 7.36329C1.19333 7.36329 0.751797 8.15341 0.908737 8.31368C1.06568 8.47391 1.44414 8.43719 1.44414 8.43719C1.44414 8.43719 6.52846 7.27079 6.98365 7.1788C7.1062 7.15403 7.19272 7.13973 7.25914 7.12876C7.43947 7.09898 7.47184 7.09363 7.67545 6.9694ZM4.08064 5.4705C3.80773 5.72991 3.35511 6.34911 3.35511 6.34911C3.35511 6.34911 4.19631 6.40093 4.65959 5.96055C5.12291 5.52016 5.01676 4.76965 5.01676 4.76965C5.01676 4.76965 4.35354 5.21109 4.08064 5.4705Z" fill="white"/>
</g>
<defs>
<clipPath id="clip0_135_7936">
<rect width="14" height="14" fill="white"/>
</clipPath>
</defs>
</svg>
