<svg width="14" height="15" viewBox="0 0 14 15" fill="none" xmlns="http://www.w3.org/2000/svg">
<g clip-path="url(#clip0_132_4615)">
<path fill-rule="evenodd" clip-rule="evenodd" d="M7.67545 7.4694C7.77033 7.41154 7.85083 7.2903 7.91574 7.15555C8.7701 7.50473 9.37048 8.32986 9.37048 9.29211C9.37048 10.5704 8.31091 11.6067 7.00388 11.6067C6.46734 11.6067 5.9725 11.4321 5.57556 11.1378C5.44534 11.0761 5.33821 11.0169 5.25055 10.9684C5.11457 10.8933 5.0254 10.8439 4.96956 10.8517C4.80635 10.8742 4.85373 11.0243 4.8968 11.1608C4.92603 11.2534 4.95329 11.3397 4.9111 11.3753C4.86697 11.4126 4.72402 11.2763 4.55697 11.1171C4.32958 10.9003 4.05757 10.6409 3.9293 10.7188C3.82788 10.7804 3.92634 10.9475 4.04688 11.1521L4.05582 11.1672C4.10673 11.2537 4.16574 11.3417 4.21958 11.4221C4.32904 11.5853 4.41719 11.7169 4.37309 11.7392C4.31977 11.7661 3.94827 11.5153 3.63522 11.1672C3.51438 11.0329 3.39735 10.8873 3.28858 10.7519V10.7519C3.0505 10.4557 2.85214 10.2089 2.7408 10.2381C2.60686 10.2733 2.70818 10.5496 2.85707 10.8154C2.92668 10.9398 3.00858 11.0664 3.07948 11.176V11.176C3.18976 11.3465 3.27346 11.4758 3.24311 11.4918C3.20214 11.5132 2.84173 11.1617 2.59693 10.7188C2.45153 10.4558 2.32944 10.165 2.2306 9.92968C2.12341 9.67443 2.04356 9.48431 1.99098 9.46517C1.80831 9.39869 1.80831 9.77114 1.88158 10.3087C1.89113 10.3788 1.90536 10.4524 1.92289 10.5273C2.63339 12.8262 4.816 14.5 7.39832 14.5C10.557 14.5 13.1176 11.9956 13.1176 8.90634C13.1176 5.96602 10.798 3.55558 7.85094 3.32991C7.85466 3.1914 7.92695 2.91672 7.92695 2.91672C7.92695 2.91672 8.44722 1.65793 8.47473 1.38894C8.47654 1.37109 8.4787 1.35169 8.48102 1.33103C8.51342 1.04039 8.57371 0.5 8.10882 0.5C7.86054 0.5 7.74509 0.684697 7.61305 0.895935V0.895938C7.56235 0.977031 7.5092 1.06204 7.44516 1.142C6.98392 1.71799 6.20834 2.43727 5.76857 2.82048C4.83905 3.63042 3.92708 4.29608 3.39519 4.6843L3.39516 4.68433C3.15325 4.86089 2.98998 4.98008 2.93945 5.02933C2.55866 5.40055 1.19333 7.86329 1.19333 7.86329C1.19333 7.86329 0.751797 8.65341 0.908737 8.81368C1.06568 8.97391 1.44414 8.93719 1.44414 8.93719C1.44414 8.93719 6.52846 7.77079 6.98365 7.6788C7.1062 7.65403 7.19272 7.63973 7.25914 7.62876C7.43947 7.59898 7.47184 7.59363 7.67545 7.4694ZM4.08064 5.9705C3.80773 6.22991 3.35511 6.84911 3.35511 6.84911C3.35511 6.84911 4.19631 6.90093 4.65959 6.46055C5.12291 6.02016 5.01676 5.26965 5.01676 5.26965C5.01676 5.26965 4.35354 5.71109 4.08064 5.9705Z" fill="white"/>
</g>
<defs>
<clipPath id="clip0_132_4615">
<rect width="14" height="14" fill="white" transform="translate(0 0.5)"/>
</clipPath>
</defs>
</svg>
