<svg width="14" height="15" viewBox="0 0 14 15" fill="none" xmlns="http://www.w3.org/2000/svg">
<g clip-path="url(#clip0_132_4484)">
<path fill-rule="evenodd" clip-rule="evenodd" d="M4.1716 0.515959C4.1689 0.508147 4.17472 0.5 4.18298 0.5H9.10018C9.10546 0.5 9.11013 0.503434 9.11169 0.508471L11.3702 7.80546C11.3726 7.8132 11.3668 7.82104 11.3587 7.82104H8.08515C8.08116 7.82104 8.07829 7.82484 8.07938 7.8287L9.95686 14.4378C9.96052 14.4506 9.94371 14.459 9.93569 14.4483L2.63952 4.74558C2.63356 4.73765 2.63922 4.72633 2.64913 4.72633H5.62017C5.6243 4.72633 5.62719 4.72226 5.62583 4.71835L4.1716 0.515959Z" fill="white"/>
</g>
<defs>
<clipPath id="clip0_132_4484">
<rect width="14" height="14" fill="white" transform="translate(0 0.5)"/>
</clipPath>
</defs>
</svg>
