<svg width="14" height="14" viewBox="0 0 14 14" fill="none" xmlns="http://www.w3.org/2000/svg">
<g clip-path="url(#clip0_135_7850)">
<path fill-rule="evenodd" clip-rule="evenodd" d="M2.80891 11.101L5.05444 10.4499L6.99393 13.9961C6.99647 14.0007 7.00306 14.0007 7.00558 13.9961L8.94507 10.4499L11.1906 11.101C11.1957 11.1024 11.2003 11.0977 11.1988 11.0927L10.5476 8.89161L13.9961 7.00558C14.0007 7.00306 14.0007 6.99647 13.9961 6.99396L10.5192 5.09236L11.1988 2.79521C11.2003 2.79018 11.1957 2.78551 11.1906 2.78696L8.89241 3.45335L7.00558 0.00345045C7.00306 -0.00115007 6.99647 -0.0011502 6.99396 0.00345035L5.10713 3.45335L2.80891 2.78696C2.80388 2.78551 2.79921 2.79018 2.80071 2.79521L3.48034 5.09236L0.00345045 6.99396C-0.00115007 6.99647 -0.0011502 7.00306 0.00345035 7.00558L3.4519 8.89161L2.80071 11.0927C2.79921 11.0977 2.80388 11.1024 2.80891 11.101ZM4.55142 7.02395L6.14225 7.894L7.01231 9.48481C7.01482 9.48943 7.02144 9.48943 7.02395 9.48481L7.894 7.894L9.48481 7.02395C9.4894 7.02144 9.4894 7.01482 9.48481 7.01231L7.894 6.14225L7.02395 4.55145C7.02144 4.54683 7.01482 4.54683 7.01231 4.55145L6.14225 6.14225L4.55142 7.01231C4.54683 7.01482 4.54683 7.02144 4.55142 7.02395Z" fill="white"/>
</g>
<defs>
<clipPath id="clip0_135_7850">
<rect width="14" height="14" fill="white"/>
</clipPath>
</defs>
</svg>
