<svg width="14" height="15" viewBox="0 0 14 15" fill="none" xmlns="http://www.w3.org/2000/svg">
<g clip-path="url(#clip0_132_4506)">
<path fill-rule="evenodd" clip-rule="evenodd" d="M2.80891 11.601L5.05444 10.9499L6.99393 14.4961C6.99647 14.5007 7.00306 14.5007 7.00558 14.4961L8.94507 10.9499L11.1906 11.601C11.1957 11.6024 11.2003 11.5977 11.1988 11.5927L10.5476 9.39161L13.9961 7.50558C14.0007 7.50306 14.0007 7.49647 13.9961 7.49396L10.5192 5.59236L11.1988 3.29521C11.2003 3.29018 11.1957 3.28551 11.1906 3.28696L8.89241 3.95335L7.00558 0.50345C7.00306 0.49885 6.99647 0.49885 6.99396 0.50345L5.10713 3.95335L2.80891 3.28696C2.80388 3.28551 2.79921 3.29018 2.80071 3.29521L3.48034 5.59236L0.00345045 7.49396C-0.00115007 7.49647 -0.0011502 7.50306 0.00345035 7.50558L3.4519 9.39161L2.80071 11.5927C2.79921 11.5977 2.80388 11.6024 2.80891 11.601ZM4.55142 7.52395L6.14225 8.394L7.01231 9.98481C7.01482 9.98943 7.02144 9.98943 7.02395 9.98481L7.894 8.394L9.48481 7.52395C9.4894 7.52144 9.4894 7.51482 9.48481 7.51231L7.894 6.64225L7.02395 5.05145C7.02144 5.04683 7.01482 5.04683 7.01231 5.05145L6.14225 6.64225L4.55142 7.51231C4.54683 7.51482 4.54683 7.52144 4.55142 7.52395Z" fill="white"/>
</g>
<defs>
<clipPath id="clip0_132_4506">
<rect width="14" height="14" fill="white" transform="translate(0 0.5)"/>
</clipPath>
</defs>
</svg>
