<svg width="14" height="15" viewBox="0 0 14 15" fill="none" xmlns="http://www.w3.org/2000/svg">
<g clip-path="url(#clip0_132_4528)">
<path fill-rule="evenodd" clip-rule="evenodd" d="M2.41264 1.6639C2.58207 0.99496 3.18809 0.5 3.90969 0.5C4.45096 0.5 4.92721 0.778488 5.20294 1.2H5.65447C5.93499 0.912114 6.32691 0.733333 6.7606 0.733333C7.39646 0.733333 7.94257 1.11765 8.17931 1.66667H8.55734C8.79421 1.51879 9.0741 1.43333 9.37393 1.43333C10.0098 1.43333 10.5559 1.81765 10.7926 2.36667H11.8206C11.8294 2.36667 11.8376 2.36903 11.8447 2.37316C11.8917 2.36886 11.9392 2.36667 11.9873 2.36667C12.8401 2.36667 13.5315 3.05805 13.5315 3.91091V8.54141L13.5315 8.55L13.5315 8.55859V8.62528C13.5315 8.65352 13.5307 8.68166 13.5292 8.70966C13.4363 11.9219 10.5478 14.5 6.99817 14.5C3.38991 14.5 0.464844 11.8361 0.464844 8.55C0.464844 6.96382 1.14638 5.52258 2.25732 4.45596C2.25455 6.00233 2.28067 7.60101 2.40107 7.57358C2.72347 7.50008 2.47158 2.71046 2.41264 1.6639Z" fill="white"/>
</g>
<defs>
<clipPath id="clip0_132_4528">
<rect width="14" height="14" fill="white" transform="translate(0 0.5)"/>
</clipPath>
</defs>
</svg>
