<svg width="14" height="14" viewBox="0 0 14 14" fill="none" xmlns="http://www.w3.org/2000/svg">
<g clip-path="url(#clip0_135_7868)">
<path fill-rule="evenodd" clip-rule="evenodd" d="M2.41264 1.1639C2.58207 0.49496 3.18809 0 3.90969 0C4.45096 0 4.92721 0.278488 5.20294 0.7H5.65447C5.93499 0.412114 6.32691 0.233333 6.7606 0.233333C7.39646 0.233333 7.94257 0.617646 8.17931 1.16667H8.55734C8.79421 1.01879 9.0741 0.933332 9.37393 0.933332C10.0098 0.933332 10.5559 1.31765 10.7926 1.86667H11.8206C11.8294 1.86667 11.8376 1.86903 11.8447 1.87316C11.8917 1.86886 11.9392 1.86667 11.9873 1.86667C12.8401 1.86667 13.5315 2.55805 13.5315 3.41091V8.04141L13.5315 8.05L13.5315 8.05859V8.12528C13.5315 8.15352 13.5307 8.18166 13.5292 8.20966C13.4363 11.4219 10.5478 14 6.99817 14C3.38991 14 0.464844 11.3361 0.464844 8.05C0.464844 6.46382 1.14638 5.02258 2.25732 3.95596C2.25455 5.50233 2.28067 7.10101 2.40107 7.07358C2.72347 7.00008 2.47158 2.21046 2.41264 1.1639Z" fill="white"/>
</g>
<defs>
<clipPath id="clip0_135_7868">
<rect width="14" height="14" fill="white"/>
</clipPath>
</defs>
</svg>
