<svg width="14" height="14" viewBox="0 0 14 14" fill="none" xmlns="http://www.w3.org/2000/svg">
<g clip-path="url(#clip0_135_7805)">
<path fill-rule="evenodd" clip-rule="evenodd" d="M4.88666 13.063C6.93752 13.063 8.69332 11.9232 9.41817 10.3074C9.42703 10.2877 6.508 11.066 6.60108 10.7909C6.64264 10.668 8.43202 10.0143 9.73569 9.25187C10.485 8.81363 10.83 7.88594 10.83 7.88594C10.83 7.88594 9.56766 8.49885 8.92948 8.65432C7.64345 8.96768 6.51139 8.93394 6.51139 8.90129C6.51139 8.83069 8.39114 8.47353 11.0038 6.88144C12.2327 6.13257 12.5665 4.84266 12.5665 4.84266C12.5665 4.84266 11.2154 5.64744 10.3986 5.91314C8.46171 6.54322 6.69416 6.7331 6.69416 6.64784C6.69416 6.46529 8.24966 6.03755 9.89887 5.23843C10.7564 4.82295 11.499 4.28012 12.3596 3.67645C13.7677 2.68877 14 0.929688 14 0.929688C14 0.929688 12.6111 1.82547 11.9334 2.12295C9.13667 3.35046 6.6672 3.99435 4.88666 4.13375C2.19888 4.34418 0 6.2195 0 8.65432C0 11.0892 2.18783 13.063 4.88666 13.063Z" fill="white"/>
</g>
<defs>
<clipPath id="clip0_135_7805">
<rect width="14" height="14" fill="white"/>
</clipPath>
</defs>
</svg>
