<svg width="14" height="15" viewBox="0 0 14 15" fill="none" xmlns="http://www.w3.org/2000/svg">
<path fill-rule="evenodd" clip-rule="evenodd" d="M4.88666 13.563C6.93752 13.563 8.69332 12.4232 9.41817 10.8074C9.42703 10.7877 6.508 11.566 6.60108 11.2909C6.64264 11.168 8.43202 10.5143 9.73569 9.75187C10.485 9.31363 10.83 8.38594 10.83 8.38594C10.83 8.38594 9.56766 8.99885 8.92948 9.15432C7.64345 9.46768 6.51139 9.43394 6.51139 9.40129C6.51139 9.33069 8.39114 8.97353 11.0038 7.38144C12.2327 6.63257 12.5665 5.34266 12.5665 5.34266C12.5665 5.34266 11.2154 6.14744 10.3986 6.41314C8.46171 7.04322 6.69416 7.2331 6.69416 7.14784C6.69416 6.96529 8.24966 6.53755 9.89887 5.73843C10.7564 5.32295 11.499 4.78012 12.3596 4.17645C13.7677 3.18877 14 1.42969 14 1.42969C14 1.42969 12.6111 2.32547 11.9334 2.62295C9.13667 3.85046 6.6672 4.49435 4.88666 4.63375C2.19888 4.84418 0 6.7195 0 9.15432C0 11.5892 2.18783 13.563 4.88666 13.563Z" fill="white"/>
</svg>
