<svg width="14" height="14" viewBox="0 0 14 14" fill="none" xmlns="http://www.w3.org/2000/svg">
<g clip-path="url(#clip0_135_7918)">
<path fill-rule="evenodd" clip-rule="evenodd" d="M10.0885 13.9515C8.82572 14.0162 7.37997 14.0162 6.88866 13.9515C3.05621 13.4473 0 10.6453 0 6.85781C0 3.07035 3.134 0 7 0C10.866 0 14 3.07035 14 6.85781C14 8.61932 13.3221 10.2257 12.2079 11.4403C11.9053 11.7701 12.3205 12.0014 12.7422 12.2364C13.1559 12.467 13.576 12.7011 13.3318 13.0351C13.0628 13.4032 11.6045 13.8739 10.0885 13.9515ZM6.01562 6.00059C6.01562 6.59236 5.52593 7.07211 4.92188 7.07211C4.31782 7.07211 3.82812 6.59236 3.82812 6.00059C3.82812 5.60369 4.04838 5.25722 4.37566 5.07202C4.3945 5.58802 4.81876 6.00056 5.33939 6.00056H6.01562V6.00059ZM9.40559 5.07202C9.38675 5.58802 8.96249 6.00056 8.44186 6.00056H7.76562V6.00059C7.76562 6.59236 8.25532 7.07211 8.85938 7.07211C9.46343 7.07211 9.95312 6.59236 9.95312 6.00059C9.95312 5.60369 9.73287 5.25722 9.40559 5.07202Z" fill="white"/>
</g>
<defs>
<clipPath id="clip0_135_7918">
<rect width="14" height="14" fill="white"/>
</clipPath>
</defs>
</svg>
