<svg width="14" height="15" viewBox="0 0 14 15" fill="none" xmlns="http://www.w3.org/2000/svg">
<g clip-path="url(#clip0_132_4593)">
<path fill-rule="evenodd" clip-rule="evenodd" d="M10.0885 14.4515C8.82572 14.5162 7.37997 14.5162 6.88866 14.4515C3.05621 13.9473 0 11.1453 0 7.35781C0 3.57035 3.134 0.5 7 0.5C10.866 0.5 14 3.57035 14 7.35781C14 9.11932 13.3221 10.7257 12.2079 11.9403C11.9053 12.2701 12.3205 12.5014 12.7422 12.7364C13.1559 12.967 13.576 13.2011 13.3318 13.5351C13.0628 13.9032 11.6045 14.3739 10.0885 14.4515ZM6.01562 6.50059C6.01562 7.09236 5.52593 7.57211 4.92188 7.57211C4.31782 7.57211 3.82812 7.09236 3.82812 6.50059C3.82812 6.10369 4.04838 5.75722 4.37566 5.57202C4.3945 6.08802 4.81876 6.50056 5.33939 6.50056H6.01562V6.50059ZM9.40559 5.57202C9.38675 6.08802 8.96249 6.50056 8.44186 6.50056H7.76562V6.50059C7.76562 7.09236 8.25532 7.57211 8.85938 7.57211C9.46343 7.57211 9.95312 7.09236 9.95312 6.50059C9.95312 6.10369 9.73287 5.75722 9.40559 5.57202Z" fill="white"/>
</g>
<defs>
<clipPath id="clip0_132_4593">
<rect width="14" height="14" fill="white" transform="translate(0 0.5)"/>
</clipPath>
</defs>
</svg>
