<svg width="14" height="15" viewBox="0 0 14 15" fill="none" xmlns="http://www.w3.org/2000/svg">
<g clip-path="url(#clip0_132_4438)">
<path fill-rule="evenodd" clip-rule="evenodd" d="M2.66367 12.5491C2.61561 12.5039 2.56809 12.4578 2.52112 12.4108C0.0414628 9.93116 0.0414633 5.91084 2.52112 3.4312C5.00076 0.951531 12.9019 0.785645 12.9019 0.785645C12.9019 0.785645 13.9804 9.93116 11.5008 12.4108C9.29849 14.6131 5.88101 14.8594 3.40687 13.1499L5.40045 10.7035L8.58736 10.0154L5.9859 9.75534L7.63916 8.072L9.52107 7.65974L8.03297 7.21904L9.52107 4.53454L7.40439 6.90875L6.587 5.75531L6.87474 7.65974L5.40045 9.32175L4.71704 7.21902V10.0154L2.66367 12.5491Z" fill="white"/>
</g>
<defs>
<clipPath id="clip0_132_4438">
<rect width="14" height="14" fill="white" transform="translate(0 0.5)"/>
</clipPath>
</defs>
</svg>
