<svg width="14" height="14" viewBox="0 0 14 14" fill="none" xmlns="http://www.w3.org/2000/svg">
<g clip-path="url(#clip0_135_7945)">
<path fill-rule="evenodd" clip-rule="evenodd" d="M2.66367 12.0491C2.61561 12.0039 2.56809 11.9578 2.52112 11.9108C0.0414628 9.43116 0.0414633 5.41084 2.52112 2.9312C5.00076 0.451531 12.9019 0.285645 12.9019 0.285645C12.9019 0.285645 13.9804 9.43116 11.5008 11.9108C9.29849 14.1131 5.88101 14.3594 3.40687 12.6499L5.40045 10.2035L8.58736 9.51541L5.9859 9.25534L7.63916 7.572L9.52107 7.15974L8.03297 6.71904L9.52107 4.03454L7.40439 6.40875L6.587 5.25531L6.87474 7.15974L5.40045 8.82175L4.71704 6.71902V9.51541L2.66367 12.0491Z" fill="white"/>
</g>
<defs>
<clipPath id="clip0_135_7945">
<rect width="14" height="14" fill="white"/>
</clipPath>
</defs>
</svg>
