<svg width="14" height="14" viewBox="0 0 14 14" fill="none" xmlns="http://www.w3.org/2000/svg">
<g clip-path="url(#clip0_135_7841)">
<path fill-rule="evenodd" clip-rule="evenodd" d="M3.08339 12.0245C3.07959 12.0245 3.07694 12.0208 3.0782 12.0172L6.65243 1.91773C6.65323 1.91553 6.6553 1.91406 6.65763 1.91406H10.4732C10.4756 1.91406 10.4777 1.91554 10.4784 1.91775L13.9996 12.0172C14.0009 12.0208 13.9982 12.0245 13.9944 12.0245H3.1908H3.08339ZM0.00550446 12.064C0.00166557 12.064 -0.000992173 12.0602 0.000354395 12.0566L2.66199 4.95075C2.66279 4.94859 2.66484 4.94717 2.66714 4.94717H4.97979C4.98362 4.94717 4.98627 4.95097 4.98496 4.95455L2.41123 12.0604C2.41045 12.0626 2.40838 12.064 2.40606 12.064H0.00550446Z" fill="white"/>
</g>
<defs>
<clipPath id="clip0_135_7841">
<rect width="14" height="14" fill="white"/>
</clipPath>
</defs>
</svg>
