<svg width="14" height="15" viewBox="0 0 14 15" fill="none" xmlns="http://www.w3.org/2000/svg">
<g clip-path="url(#clip0_132_4495)">
<path fill-rule="evenodd" clip-rule="evenodd" d="M3.08339 12.5245C3.07959 12.5245 3.07694 12.5208 3.0782 12.5172L6.65243 2.41773C6.65323 2.41553 6.6553 2.41406 6.65763 2.41406H10.4732C10.4756 2.41406 10.4777 2.41554 10.4784 2.41775L13.9996 12.5172C14.0009 12.5208 13.9982 12.5245 13.9944 12.5245H3.1908H3.08339ZM0.00550446 12.564C0.00166557 12.564 -0.000992173 12.5602 0.000354395 12.5566L2.66199 5.45075C2.66279 5.44859 2.66484 5.44717 2.66714 5.44717H4.97979C4.98362 5.44717 4.98627 5.45097 4.98496 5.45455L2.41123 12.5604C2.41045 12.5626 2.40838 12.564 2.40606 12.564H0.00550446Z" fill="white"/>
</g>
<defs>
<clipPath id="clip0_132_4495">
<rect width="14" height="14" fill="white" transform="translate(0 0.5)"/>
</clipPath>
</defs>
</svg>
