<svg width="14" height="14" viewBox="0 0 14 14" fill="none" xmlns="http://www.w3.org/2000/svg">
<path fill-rule="evenodd" clip-rule="evenodd" d="M10.5084 1.06738L10.5514 4.8504L7.25187 6.43434L7.21118 2.86245L10.5084 1.06738Z" fill="white"/>
<path fill-rule="evenodd" clip-rule="evenodd" d="M13.8159 7.0284L10.5495 8.89671L7.28125 7.02545L10.5478 5.30957L13.8159 7.0284Z" fill="white"/>
<path fill-rule="evenodd" clip-rule="evenodd" d="M6.70042 7.0284L3.43407 8.89671L0.165771 7.02545L3.43238 5.30957L6.70042 7.0284Z" fill="white"/>
<path fill-rule="evenodd" clip-rule="evenodd" d="M3.39722 1.05225L6.78746 2.73131L6.70078 6.39034L3.49976 4.805L3.39722 1.05225Z" fill="white"/>
<path fill-rule="evenodd" clip-rule="evenodd" d="M10.6007 12.948L7.21045 11.2689L7.29713 7.60986L10.4982 9.19523L10.6007 12.948Z" fill="white"/>
<path fill-rule="evenodd" clip-rule="evenodd" d="M3.51429 12.9822L3.47119 9.19918L6.77079 7.61523L6.81148 11.1871L3.51429 12.9822Z" fill="white"/>
</svg>
