<svg width="14" height="15" viewBox="0 0 14 15" fill="none" xmlns="http://www.w3.org/2000/svg">
<path fill-rule="evenodd" clip-rule="evenodd" d="M10.5084 1.56738L10.5514 5.3504L7.25187 6.93434L7.21118 3.36245L10.5084 1.56738Z" fill="white"/>
<path fill-rule="evenodd" clip-rule="evenodd" d="M13.816 7.5284L10.5497 9.39671L7.28137 7.52545L10.548 5.80957L13.816 7.5284Z" fill="white"/>
<path fill-rule="evenodd" clip-rule="evenodd" d="M6.7003 7.5284L3.43395 9.39671L0.165649 7.52545L3.43225 5.80957L6.7003 7.5284Z" fill="white"/>
<path fill-rule="evenodd" clip-rule="evenodd" d="M3.39722 1.55225L6.78746 3.23131L6.70078 6.89034L3.49976 5.305L3.39722 1.55225Z" fill="white"/>
<path fill-rule="evenodd" clip-rule="evenodd" d="M10.6006 13.448L7.21033 11.7689L7.29701 8.10986L10.498 9.69523L10.6006 13.448Z" fill="white"/>
<path fill-rule="evenodd" clip-rule="evenodd" d="M3.51441 13.4822L3.47131 9.69918L6.77091 8.11523L6.8116 11.6871L3.51441 13.4822Z" fill="white"/>
</svg>
