<svg width="14" height="15" viewBox="0 0 14 15" fill="none" xmlns="http://www.w3.org/2000/svg">
<g clip-path="url(#clip0_132_4440)">
<path fill-rule="evenodd" clip-rule="evenodd" d="M11.6982 11.2584C13.112 10.128 14 8.49466 14 6.67832C14 3.26612 10.866 0.5 7 0.5C3.134 0.5 0 3.26612 0 6.67832C0 8.42909 0.825062 10.0098 2.15073 11.134C2.07039 11.4114 2.02631 11.7132 2.02631 12.0287C2.02631 13.3935 2.85105 14.5 3.86843 14.5C4.52949 14.5 5.10923 14.0328 5.43421 13.3312C5.7592 14.0328 6.33894 14.5 7 14.5C7.6026 14.5 8.13761 14.1118 8.47369 13.5117C8.80977 14.1118 9.34478 14.5 9.94736 14.5C10.9647 14.5 11.7895 13.3935 11.7895 12.0287C11.7895 11.7597 11.7574 11.5008 11.6982 11.2584ZM11.0526 6.80085C11.0526 8.53318 9.19696 9.93753 6.90791 9.93753C4.61882 9.93753 2.76317 8.53318 2.76317 6.80085C2.76317 5.06851 4.61882 3.66416 6.90791 3.66416C9.19696 3.66416 11.0526 5.06851 11.0526 6.80085Z" fill="white"/>
</g>
<defs>
<clipPath id="clip0_132_4440">
<rect width="14" height="14" fill="white" transform="translate(0 0.5)"/>
</clipPath>
</defs>
</svg>
