<svg width="14" height="14" viewBox="0 0 14 14" fill="none" xmlns="http://www.w3.org/2000/svg">
<g clip-path="url(#clip0_135_7954)">
<path fill-rule="evenodd" clip-rule="evenodd" d="M11.6982 10.7584C13.112 9.62795 14 7.99466 14 6.17832C14 2.76612 10.866 0 7 0C3.134 0 0 2.76612 0 6.17832C0 7.92909 0.825062 9.50977 2.15073 10.634C2.07039 10.9114 2.02631 11.2132 2.02631 11.5287C2.02631 12.8935 2.85105 14 3.86843 14C4.52949 14 5.10923 13.5328 5.43421 12.8312C5.7592 13.5328 6.33894 14 7 14C7.6026 14 8.13761 13.6118 8.47369 13.0117C8.80977 13.6118 9.34478 14 9.94736 14C10.9647 14 11.7895 12.8935 11.7895 11.5287C11.7895 11.2597 11.7574 11.0008 11.6982 10.7584ZM11.0526 6.30085C11.0526 8.03318 9.19696 9.43753 6.90791 9.43753C4.61882 9.43753 2.76317 8.03318 2.76317 6.30085C2.76317 4.56851 4.61882 3.16416 6.90791 3.16416C9.19696 3.16416 11.0526 4.56851 11.0526 6.30085Z" fill="white"/>
</g>
<defs>
<clipPath id="clip0_135_7954">
<rect width="14" height="14" fill="white"/>
</clipPath>
</defs>
</svg>
