<svg width="14" height="14" viewBox="0 0 14 14" fill="none" xmlns="http://www.w3.org/2000/svg">
<g clip-path="url(#clip0_135_7877)">
<path fill-rule="evenodd" clip-rule="evenodd" d="M12.4667 11.6261C12.4667 11.6261 10.7014 13.042 7.18848 12.4561C4.52328 12.0115 3.10179 9.07356 3.10179 7.49435C3.10179 3.75017 5.87297 2.89811 7.74648 2.89811C9.61997 2.89811 10.8422 4.72467 10.8422 6.13889C10.8422 7.55311 9.84192 8.79009 8.28532 8.79009C6.72875 8.79009 6.26773 7.69729 6.26773 6.6926C6.26773 5.68794 7.08058 5.33397 7.8219 5.33397C8.56321 5.33397 8.81705 5.96687 8.81705 6.51082C8.81705 7.0548 8.395 7.24959 8.04297 7.24959C7.69095 7.24959 7.65614 7.072 7.52142 6.88535C7.38667 6.69873 7.69325 5.99227 7.18848 5.99227C6.68371 5.99227 6.58962 6.80441 6.58962 6.80441C6.58962 6.80441 6.77365 8.37211 8.28532 8.34507C9.79702 8.318 10.5142 7.14932 10.3057 5.99227C10.0973 4.8352 8.97441 3.60568 7.00364 3.85413C5.03286 4.10257 4.22822 6.09386 4.58289 8.22186C4.93757 10.3499 7.48691 11.5829 9.49134 11.1393C11.4958 10.6957 13.4922 9.24454 13.4922 5.56536C13.4922 1.88614 10.3057 -0.325396 6.5062 0.0390781C2.70665 0.40355 0.348058 3.72537 0.499028 7.7166C0.649999 11.7078 4.43721 13.8816 7.63968 13.9936C10.8422 14.1057 12.8054 12.2518 12.8054 12.2518C12.8054 12.2518 13.2469 11.8581 13.0738 11.5507C12.9007 11.2432 12.4667 11.6261 12.4667 11.6261Z" fill="white"/>
</g>
<defs>
<clipPath id="clip0_135_7877">
<rect width="14" height="14" fill="white"/>
</clipPath>
</defs>
</svg>
