<svg width="14" height="15" viewBox="0 0 14 15" fill="none" xmlns="http://www.w3.org/2000/svg">
<g clip-path="url(#clip0_132_4539)">
<path fill-rule="evenodd" clip-rule="evenodd" d="M12.4667 12.1261C12.4667 12.1261 10.7014 13.542 7.18848 12.9561C4.52328 12.5115 3.10179 9.57356 3.10179 7.99435C3.10179 4.25017 5.87297 3.39811 7.74648 3.39811C9.61997 3.39811 10.8422 5.22467 10.8422 6.63889C10.8422 8.05311 9.84192 9.29009 8.28532 9.29009C6.72875 9.29009 6.26773 8.19729 6.26773 7.1926C6.26773 6.18794 7.08058 5.83397 7.8219 5.83397C8.56321 5.83397 8.81705 6.46687 8.81705 7.01082C8.81705 7.5548 8.395 7.74959 8.04297 7.74959C7.69095 7.74959 7.65614 7.572 7.52142 7.38535C7.38667 7.19873 7.69325 6.49227 7.18848 6.49227C6.68371 6.49227 6.58962 7.30441 6.58962 7.30441C6.58962 7.30441 6.77365 8.87211 8.28532 8.84507C9.79702 8.818 10.5142 7.64932 10.3057 6.49227C10.0973 5.3352 8.97441 4.10568 7.00364 4.35413C5.03286 4.60257 4.22822 6.59386 4.58289 8.72186C4.93757 10.8499 7.48691 12.0829 9.49134 11.6393C11.4958 11.1957 13.4922 9.74454 13.4922 6.06536C13.4922 2.38614 10.3057 0.174604 6.5062 0.539078C2.70665 0.90355 0.348058 4.22537 0.499028 8.2166C0.649999 12.2078 4.43721 14.3816 7.63968 14.4936C10.8422 14.6057 12.8054 12.7518 12.8054 12.7518C12.8054 12.7518 13.2469 12.3581 13.0738 12.0507C12.9007 11.7432 12.4667 12.1261 12.4667 12.1261Z" fill="white"/>
</g>
<defs>
<clipPath id="clip0_132_4539">
<rect width="14" height="14" fill="white" transform="translate(0 0.5)"/>
</clipPath>
</defs>
</svg>
