<svg width="14" height="14" viewBox="0 0 14 14" fill="none" xmlns="http://www.w3.org/2000/svg">
<g clip-path="url(#clip0_135_7886)">
<path fill-rule="evenodd" clip-rule="evenodd" d="M10.8046 6.69257C10.8038 6.69148 10.8034 6.69011 10.8037 6.68877L11.6968 1.48071C11.6972 1.47832 11.6993 1.47656 11.7017 1.47656H11.9844C11.9866 1.47656 11.9885 1.47798 11.9892 1.48005L14.0014 7.85124C14.002 7.85321 14.0013 7.85539 13.9997 7.85668L12.5161 9.01504C12.5138 9.01677 12.5106 9.01633 12.509 9.01406L10.8046 6.69257ZM-0.0273438 10.1451C-0.0273438 10.1473 -0.0259548 10.1492 -0.0239014 10.1499L3.03447 11.1499C3.03595 11.1504 3.03759 11.1501 3.03888 11.1493L9.87506 6.42972C9.87621 6.42893 9.87697 6.4277 9.87716 6.42633L10.6103 1.50742C10.6107 1.5044 10.6084 1.50169 10.6053 1.50169H4.55016C4.54866 1.50169 4.54727 1.50235 4.54631 1.50349L-0.0261946 7.01952C-0.0269374 7.02043 -0.0273438 7.02155 -0.0273438 7.02272V10.1451ZM4.30891 11.4047L7.65013 12.4992C7.65163 12.4996 7.6533 12.4994 7.65458 12.4985L11.6325 9.64507C11.6347 9.64351 11.6353 9.64048 11.6338 9.63824L10.1426 7.41915C10.141 7.41683 10.1379 7.41623 10.1356 7.41781L4.30891 11.4047Z" fill="white"/>
</g>
<defs>
<clipPath id="clip0_135_7886">
<rect width="14" height="14" fill="white"/>
</clipPath>
</defs>
</svg>
