<svg width="14" height="15" viewBox="0 0 14 15" fill="none" xmlns="http://www.w3.org/2000/svg">
<g clip-path="url(#clip0_132_4550)">
<path fill-rule="evenodd" clip-rule="evenodd" d="M10.8046 7.19257C10.8038 7.19148 10.8034 7.19011 10.8037 7.18877L11.6968 1.98071C11.6972 1.97832 11.6993 1.97656 11.7017 1.97656H11.9844C11.9866 1.97656 11.9885 1.97798 11.9892 1.98005L14.0014 8.35124C14.002 8.35321 14.0013 8.35539 13.9997 8.35668L12.5161 9.51504C12.5138 9.51677 12.5106 9.51633 12.509 9.51406L10.8046 7.19257ZM-0.0273438 10.6451C-0.0273438 10.6473 -0.0259548 10.6492 -0.0239014 10.6499L3.03447 11.6499C3.03595 11.6504 3.03759 11.6501 3.03888 11.6493L9.87506 6.92972C9.87621 6.92893 9.87697 6.9277 9.87716 6.92633L10.6103 2.00742C10.6107 2.0044 10.6084 2.00169 10.6053 2.00169H4.55016C4.54866 2.00169 4.54727 2.00235 4.54631 2.00349L-0.0261946 7.51952C-0.0269374 7.52043 -0.0273438 7.52155 -0.0273438 7.52272V10.6451ZM4.30891 11.9047L7.65013 12.9992C7.65163 12.9996 7.6533 12.9994 7.65458 12.9985L11.6325 10.1451C11.6347 10.1435 11.6353 10.1405 11.6338 10.1382L10.1426 7.91915C10.141 7.91683 10.1379 7.91623 10.1356 7.91781L4.30891 11.9047Z" fill="white"/>
</g>
<defs>
<clipPath id="clip0_132_4550">
<rect width="14" height="14" fill="white" transform="translate(0 0.5)"/>
</clipPath>
</defs>
</svg>
