<svg width="14" height="15" viewBox="0 0 14 15" fill="none" xmlns="http://www.w3.org/2000/svg">
<path fill-rule="evenodd" clip-rule="evenodd" d="M0.00139756 7.45972C-0.00046497 7.45655 -0.000465905 7.45261 0.00139507 7.44941L3.52174 1.43473C3.52357 1.43161 3.52693 1.42969 3.53054 1.42969H10.508C10.5117 1.42969 10.515 1.43162 10.5169 1.43477L13.9986 7.44947C14.0004 7.45261 14.0004 7.45652 13.9986 7.45967L10.5169 13.4676C10.515 13.4708 10.5117 13.4727 10.508 13.4727H3.53054C3.52693 13.4727 3.52357 13.4708 3.52174 13.4677L0.00139756 7.45972ZM10.2434 7.45119C10.2434 9.24188 8.79178 10.6935 7.00109 10.6935C5.21041 10.6935 3.75875 9.24188 3.75875 7.45119C3.75875 5.66048 5.21041 4.20885 7.00109 4.20885C8.79178 4.20885 10.2434 5.66048 10.2434 7.45119Z" fill="white"/>
</svg>
