<svg width="14" height="14" viewBox="0 0 14 14" fill="none" xmlns="http://www.w3.org/2000/svg">
<path fill-rule="evenodd" clip-rule="evenodd" d="M0.00139756 6.95972C-0.00046497 6.95655 -0.000465905 6.95261 0.00139507 6.94941L3.52174 0.934727C3.52357 0.931607 3.52693 0.929688 3.53054 0.929688H10.508C10.5117 0.929688 10.515 0.931623 10.5169 0.934771L13.9986 6.94947C14.0004 6.95261 14.0004 6.95652 13.9986 6.95967L10.5169 12.9676C10.515 12.9708 10.5117 12.9727 10.508 12.9727H3.53054C3.52693 12.9727 3.52357 12.9708 3.52174 12.9677L0.00139756 6.95972ZM10.2434 6.95119C10.2434 8.74188 8.79178 10.1935 7.00109 10.1935C5.21041 10.1935 3.75875 8.74188 3.75875 6.95119C3.75875 5.16048 5.21041 3.70885 7.00109 3.70885C8.79178 3.70885 10.2434 5.16048 10.2434 6.95119Z" fill="white"/>
</svg>
