<svg width="14" height="15" viewBox="0 0 14 15" fill="none" xmlns="http://www.w3.org/2000/svg">
<g clip-path="url(#clip0_132_4462)">
<path fill-rule="evenodd" clip-rule="evenodd" d="M11.5438 9.97502C11.5438 12.4737 9.51051 14.4994 7.00235 14.4994C4.49419 14.4994 2.46094 12.4737 2.46094 9.97502C2.46094 7.54482 6.7567 0.87045 6.99229 0.506229C6.99768 0.497924 7.00706 0.497924 7.01241 0.506229C7.24801 0.87045 11.5438 7.54482 11.5438 9.97502ZM6.24531 13.0489C3.94078 12.5446 4.33513 9.99184 4.33513 9.99184C4.33513 9.99184 4.96442 11.5329 6.49154 12.0321C8.01864 12.5312 9.86412 11.7991 9.86412 11.7991C9.86412 11.7991 8.54984 13.5531 6.24531 13.0489Z" fill="white"/>
</g>
<defs>
<clipPath id="clip0_132_4462">
<rect width="14" height="14" fill="white" transform="translate(0 0.5)"/>
</clipPath>
</defs>
</svg>
