<svg width="14" height="14" viewBox="0 0 14 14" fill="none" xmlns="http://www.w3.org/2000/svg">
<path fill-rule="evenodd" clip-rule="evenodd" d="M11.5438 9.47502C11.5438 11.9737 9.51051 13.9994 7.00235 13.9994C4.49419 13.9994 2.46094 11.9737 2.46094 9.47502C2.46094 7.04482 6.7567 0.37045 6.99229 0.00622918C6.99768 -0.00207644 7.00706 -0.00207637 7.01241 0.00622926C7.24801 0.37045 11.5438 7.04482 11.5438 9.47502ZM6.24531 12.5489C3.94078 12.0446 4.33513 9.49184 4.33513 9.49184C4.33513 9.49184 4.96442 11.0329 6.49154 11.5321C8.01864 12.0312 9.86412 11.2991 9.86412 11.2991C9.86412 11.2991 8.54984 13.0531 6.24531 12.5489Z" fill="white"/>
</svg>
