<svg width="10" height="10" viewBox="0 0 10 10" fill="none" xmlns="http://www.w3.org/2000/svg">
<g clip-path="url(#clip0_33_5277)">
<path fill-rule="evenodd" clip-rule="evenodd" d="M4.48006 8.84473C4.67004 8.87381 4.86461 8.88889 5.06273 8.88889C7.17215 8.88889 8.88217 7.17887 8.88217 5.06945C8.88217 2.96002 7.17215 1.25 5.06273 1.25C4.92121 1.25 4.78147 1.2577 4.64395 1.2727C5.69033 2.06545 6.38217 3.43871 6.38217 5C6.38217 6.64141 5.6175 8.075 4.48006 8.84473ZM4.99328 10C7.75471 10 9.99328 7.76143 9.99328 5C9.99328 2.23857 7.75471 0 4.99328 0C2.23186 0 -0.00671387 2.23857 -0.00671387 5C-0.00671387 7.76143 2.23186 10 4.99328 10Z" fill="white"/>
</g>
<defs>
<clipPath id="clip0_33_5277">
<rect width="10" height="10" fill="white"/>
</clipPath>
</defs>
</svg>
